<svg height="25" viewBox="0 0 17 25" width="17" xmlns="http://www.w3.org/2000/svg"><path d="m0 0h17v25h-17z" fill="none"></path><path d="m16 8.2017c-.1665-.1801-.385-.2703-.6553-.2703h-.3447v-.0225c0-2.2253-1.804-4.0293-4.0293-4.0293h-6.9414c-2.2253.0001-4.0293 1.804-4.0293 4.0294v8.9414c0 2.2253 1.804 4.0293 4.0293 4.0293h6.9414c2.2253 0 4.0293-1.804 4.0293-4.0293v-5.1904h.3447c.2703 0 .4888-.0923.6553-.277.1667-.1844.25-.4254.25-.7227v-1.7427c0-.2972-.0833-.5356-.25-.7159zm-2 8.6487c0 1.6704-1.3589 3.0293-3.0293 3.0293h-6.9414c-1.6704 0-3.0293-1.3589-3.0293-3.0293v-8.9414c0-1.6704 1.3589-3.0293 3.0293-3.0293h6.9414c1.6704 0 3.0293 1.3589 3.0293 3.0293z" fill="#1d1d1f"></path></svg>